<?xml version="1.0" encoding="UTF-8" standalone="no"?>
<svg
   xmlns:dc="http://purl.org/dc/elements/1.1/"
   xmlns:cc="http://creativecommons.org/ns#"
   xmlns:rdf="http://www.w3.org/1999/02/22-rdf-syntax-ns#"
   xmlns:svg="http://www.w3.org/2000/svg"
   xmlns="http://www.w3.org/2000/svg"
   id="svg12"
   preserveAspectRatio="xMidYMid meet"
   viewBox="0 0 700.000000 948.000000"
   height="948.000000pt"
   width="700.000000pt"
   version="1.0">
  <defs
     id="defs16" />
  <metadata
     id="metadata2">
Created by potrace 1.12, written by Peter Selinger 2001-2015
<rdf:RDF>
  <cc:Work
     rdf:about="">
    <dc:format>image/svg+xml</dc:format>
    <dc:type
       rdf:resource="http://purl.org/dc/dcmitype/StillImage" />
  </cc:Work>
</rdf:RDF>
</metadata>
  <g
     id="g10"
     stroke="none"
     fill="#000000"
     transform="translate(0.000000,948.000000) scale(0.100000,-0.100000)">
    <path
       id="path4"
       d="M495 9165 c-22 -13 -51 -41 -65 -61 l-25 -38 -3 -2839 c-2 -2815 -2 -2841 18 -2881 13 -28 479 -500 1477 -1497 1411 -1410 1460 -1458 1518 -1479 82 -31 189 -31 269 0 56 21 125 89 1525 1490 1241 1242 1469 1474 1479 1508 9 30 12 705 12 2854 l0 2814 -22 44 c-13 24 -40 58 -61 74 l-39 31 -3021 2 -3022 3 -40 -25z m5806 -365 c19 -11 19 -51 19 -2646 l0 -2635 -53 -56 c-146 -156 -2711 -2713 -2721 -2713 -6 0 -631 620 -1389 1378 l-1377 1377 0 2647 c0 2108 3 2647 13 2651 26 11 5488 7 5508 -3z" />
    <path
       id="path6"
       d="M3160 7395 c-79 -13 -158 -34 -175 -45 -5 -4 -28 -13 -50 -20 -77 -24 -188 -93 -233 -144 l-32 -37 0 -789 c0 -458 4 -799 9 -813 15 -38 39 -41 84 -10 113 80 186 116 327 161 116 38 324 39 455 2 134 -37 155 -44 405 -142 72 -29 212 -71 313 -96 60 -15 361 -16 481 -1 123 15 316 57 344 75 l22 14 0 823 c0 627 -3 826 -12 835 -14 14 -60 16 -74 3 -13 -13 -223 -94 -309 -118 -144 -42 -190 -48 -340 -48 -149 0 -151 0 -220 33 -38 18 -140 80 -225 136 -167 112 -263 159 -368 181 -82 18 -299 18 -402 0z" />
    <path
       id="path8"
       d="M2122 7373 c-4 -10 -7 -789 -7 -1731 0 -1512 2 -1714 15 -1722 23 -15 333 -13 353 3 16 11 17 124 15 1737 l-3 1725 -183 3 c-167 2 -183 1 -190 -15z" />
  </g>
</svg>
